<?xml version="1.0" encoding="iso-8859-1"?>
<!-- Uploaded to: SVG Repo, www.svgrepo.com, Generator: SVG Repo Mixer Tools -->
<svg height="800px" width="800px" version="1.1" id="Layer_1" xmlns="http://www.w3.org/2000/svg" xmlns:xlink="http://www.w3.org/1999/xlink" 
	 viewBox="0 0 508 508" xml:space="preserve">
<path style="fill:#EF934A;" d="M504,96.4c0-18.8-17.2-32.4-36-32.4H40C20,64,8,78.4,8,96.4V112h496V96.4z"/>
<path style="fill:#F4EFEF;" d="M8,116v324h496V116H8z"/>
<g>
	<path style="fill:#E36D60;" d="M119.6,290c-12.8,0-23.2,10.4-23.2,22.8c0,12.8,10.4,23.2,23.2,23.2s23.2-10.4,23.2-23.2
		S132.4,290,119.6,290z"/>
	<path style="fill:#E36D60;" d="M247.2,308.4c-12.8,0-23.2,10.4-23.2,23.2c0,12.8,10.4,23.2,23.2,23.2s23.2-10.4,23.2-23.2
		C270,318.8,259.6,308.4,247.2,308.4z"/>
	<path style="fill:#E36D60;" d="M371.2,172.4c-12.8,0-23.2,10.4-23.2,23.2c0,12.8,10.4,23.2,23.2,23.2s23.2-10.4,23.2-23.2
		C394,182.8,383.6,172.4,371.2,172.4z"/>
</g>
<path d="M119.6,338c-13.6,0-25.2-11.2-25.2-25.2s11.2-25.2,25.2-25.2s25.2,11.2,25.2,25.2S133.2,338,119.6,338z M119.6,296
	c-9.2,0-17.2,7.6-17.2,17.2s7.6,17.2,17.2,17.2s17.2-7.6,17.2-17.2S128.8,296,119.6,296z"/>
<path d="M247.2,356.4c-13.6,0-25.2-11.2-25.2-25.2s11.2-25.2,25.2-25.2c13.6,0,24.8,11.2,24.8,25.2S260.8,356.4,247.2,356.4z
	 M247.2,314.4c-9.2,0-17.2,7.6-17.2,17.2s7.6,17.2,17.2,17.2s16.8-7.6,16.8-17.2S256.4,314.4,247.2,314.4z"/>
<path d="M371.2,220.4c-13.6,0-25.2-11.2-25.2-25.2s11.2-25.2,25.2-25.2s25.2,11.2,25.2,25.2S384.8,220.4,371.2,220.4z M371.2,178.4
	c-9.2,0-17.2,7.6-17.2,17.2s7.6,17.2,17.2,17.2s17.2-7.6,17.2-17.2S380.4,178.4,371.2,178.4z"/>
<path d="M264,318.8c-0.8,0-2-0.4-2.8-1.2c-1.6-1.6-1.6-4-0.4-5.6l82.4-90.4c1.6-1.6,4-1.6,5.6-0.4c1.6,1.6,1.6,4,0.4,5.6l-82.4,90.4
	C266.4,318.4,265.2,318.8,264,318.8z"/>
<path d="M212,328.4h-0.4l-68-8.4c-2-0.4-3.6-2.4-3.6-4.4c0.4-2,2.4-3.6,4.4-3.6l68,8.4c2,0.4,3.6,2.4,3.6,4.4
	C215.6,326.8,214,328.4,212,328.4z"/>
<path d="M8,444.4c-0.8,0-2-0.4-2.8-0.8c-1.6-1.6-2-4-0.4-5.6l87.6-100c1.6-1.6,4-2,5.6-0.4s2,4,0.4,5.6l-87.6,100
	C10.4,444,9.2,444.4,8,444.4z"/>
<path d="M392,188.4c-1.2,0-2.8-0.8-3.6-2c-1.2-2-0.4-4.4,1.2-5.6l92-56c2-1.2,4.4-0.4,5.6,1.2c1.2,2,0.4,4.4-1.2,5.6l-92,56
	C393.6,188,392.8,188.4,392,188.4z"/>
<path d="M504,448H4c-2.4,0-4-1.6-4-4V96.4C0,75.2,16.8,60,40,60h428c23.2,0,40,15.2,40,36.4V444C508,446.4,506.4,448,504,448z
	 M8,440h492V96.4c0-16.8-13.2-28.4-32-28.4H40C21.6,68,8,80,8,96.4V440z"/>
<path d="M504,120H8c-2.4,0-4-1.6-4-4s1.6-4,4-4h496c2.4,0,4,1.6,4,4S506.4,120,504,120z"/>
<path d="M40,92.4c-1.2,0-2-0.4-2.8-1.2c-0.8-0.8-1.2-1.6-1.2-2.8c0-1.2,0.4-2,1.2-2.8c1.6-1.6,4-1.6,5.6,0c0.8,0.8,1.2,1.6,1.2,2.8
	c0,1.2-0.4,2-1.2,2.8C42,92,41.2,92.4,40,92.4z"/>
<path d="M60,92.4c-1.2,0-2-0.4-2.8-1.2c-0.8-0.8-1.2-1.6-1.2-2.8c0-1.2,0.4-2,1.2-2.8c1.6-1.6,4-1.6,5.6,0c0.8,0.8,1.2,1.6,1.2,2.8
	c0,1.2-0.4,2-1.2,2.8C62,92,61.2,92.4,60,92.4z"/>
<path d="M80,92.4c-1.2,0-2-0.4-2.8-1.2c-0.8-0.8-1.2-1.6-1.2-2.8c0-1.2,0.4-2,1.2-2.8c1.6-1.6,4-1.6,5.6,0c0.8,0.8,1.2,2,1.2,2.8
	c0,1.2-0.4,2-1.2,2.8C82,92,81.2,92.4,80,92.4z"/>
</svg>