<svg class="svg-icon" style="width: 1em;height: 1em;vertical-align: middle;fill: currentColor;overflow: hidden;" viewBox="0 0 1024 1024" version="1.1" xmlns="http://www.w3.org/2000/svg"><path d="M477.9 522.9m-115.8 0a115.8 115.8 0 1 0 231.6 0 115.8 115.8 0 1 0-231.6 0Z"  /><path d="M293.5 384m-68.5 0a68.5 68.5 0 1 0 137 0 68.5 68.5 0 1 0-137 0Z"  /><path d="M560.2 294.3m-70.5 0a70.5 70.5 0 1 0 141 0 70.5 70.5 0 1 0-141 0Z"  /><path d="M343.7 736.3m-66.6 0a66.6 66.6 0 1 0 133.2 0 66.6 66.6 0 1 0-133.2 0Z"  /><path d="M629.4 688m-54.1 0a54.1 54.1 0 1 0 108.2 0 54.1 54.1 0 1 0-108.2 0Z"  /><path d="M724.8 467.9m-77.2 0a77.2 77.2 0 1 0 154.4 0 77.2 77.2 0 1 0-154.4 0Z"  /><path d="M472.158 519.187l79.61-225.353 18.198 6.429-79.61 225.353z"  /><path d="M621.8 694L463 516.6 732.1 458l4.1 18.9-236.7 51.5 136.6 152.7z"  /><path d="M335.09 730.657L469.256 517.34l16.338 10.276-134.165 213.318z"  /><path d="M287.304 391.252l11.464-15.525 188.23 138.996-11.465 15.525z"  /></svg>